<mxfile host="app.diagrams.net" agent="Mozilla/5.0 (Windows NT 10.0; Win64; x64) AppleWebKit/537.36 (KHTML, like Gecko) Chrome/137.0.0.0 Safari/537.36" version="27.2.0">
  <diagram name="第 1 页" id="4Ei7tQvIC_EwOqm_k7JZ">
    <mxGraphModel dx="2015" dy="698" grid="1" gridSize="10" guides="1" tooltips="1" connect="1" arrows="1" fold="1" page="1" pageScale="1" pageWidth="827" pageHeight="1169" math="0" shadow="0">
      <root>
        <mxCell id="0" />
        <mxCell id="1" parent="0" />
        <mxCell id="z0-dMd29TeHwVhwk8-Vb-1" value="业务" style="shape=umlLifeline;perimeter=lifelinePerimeter;whiteSpace=wrap;html=1;container=1;dropTarget=0;collapsible=0;recursiveResize=0;outlineConnect=0;portConstraint=eastwest;newEdgeStyle={&quot;curved&quot;:0,&quot;rounded&quot;:0};" vertex="1" parent="1">
          <mxGeometry x="40" y="180" width="100" height="630" as="geometry" />
        </mxCell>
        <mxCell id="z0-dMd29TeHwVhwk8-Vb-6" value="" style="html=1;points=[[0,0,0,0,5],[0,1,0,0,-5],[1,0,0,0,5],[1,1,0,0,-5]];perimeter=orthogonalPerimeter;outlineConnect=0;targetShapes=umlLifeline;portConstraint=eastwest;newEdgeStyle={&quot;curved&quot;:0,&quot;rounded&quot;:0};" vertex="1" parent="z0-dMd29TeHwVhwk8-Vb-1">
          <mxGeometry x="45" y="50" width="10" height="550" as="geometry" />
        </mxCell>
        <mxCell id="z0-dMd29TeHwVhwk8-Vb-2" value="营销后台" style="shape=umlLifeline;perimeter=lifelinePerimeter;whiteSpace=wrap;html=1;container=1;dropTarget=0;collapsible=0;recursiveResize=0;outlineConnect=0;portConstraint=eastwest;newEdgeStyle={&quot;curved&quot;:0,&quot;rounded&quot;:0};" vertex="1" parent="1">
          <mxGeometry x="200" y="180" width="96" height="620" as="geometry" />
        </mxCell>
        <mxCell id="z0-dMd29TeHwVhwk8-Vb-7" value="" style="html=1;points=[[0,0,0,0,5],[0,1,0,0,-5],[1,0,0,0,5],[1,1,0,0,-5]];perimeter=orthogonalPerimeter;outlineConnect=0;targetShapes=umlLifeline;portConstraint=eastwest;newEdgeStyle={&quot;curved&quot;:0,&quot;rounded&quot;:0};" vertex="1" parent="z0-dMd29TeHwVhwk8-Vb-2">
          <mxGeometry x="45" y="70" width="10" height="510" as="geometry" />
        </mxCell>
        <mxCell id="z0-dMd29TeHwVhwk8-Vb-21" value="" style="html=1;points=[[0,0,0,0,5],[0,1,0,0,-5],[1,0,0,0,5],[1,1,0,0,-5]];perimeter=orthogonalPerimeter;outlineConnect=0;targetShapes=umlLifeline;portConstraint=eastwest;newEdgeStyle={&quot;curved&quot;:0,&quot;rounded&quot;:0};" vertex="1" parent="z0-dMd29TeHwVhwk8-Vb-2">
          <mxGeometry x="45" y="420" width="10" height="40" as="geometry" />
        </mxCell>
        <mxCell id="z0-dMd29TeHwVhwk8-Vb-22" value="过滤未上市的商品/&lt;div&gt;过滤未上市的商品后&lt;/div&gt;&lt;div&gt;商品为空的分类&lt;/div&gt;" style="html=1;align=left;spacingLeft=2;endArrow=block;rounded=0;edgeStyle=orthogonalEdgeStyle;curved=0;rounded=0;" edge="1" target="z0-dMd29TeHwVhwk8-Vb-21" parent="z0-dMd29TeHwVhwk8-Vb-2">
          <mxGeometry x="-0.0065" relative="1" as="geometry">
            <mxPoint x="50" y="417" as="sourcePoint" />
            <Array as="points">
              <mxPoint x="80" y="447" />
            </Array>
            <mxPoint as="offset" />
          </mxGeometry>
        </mxCell>
        <mxCell id="z0-dMd29TeHwVhwk8-Vb-23" value="" style="html=1;points=[[0,0,0,0,5],[0,1,0,0,-5],[1,0,0,0,5],[1,1,0,0,-5]];perimeter=orthogonalPerimeter;outlineConnect=0;targetShapes=umlLifeline;portConstraint=eastwest;newEdgeStyle={&quot;curved&quot;:0,&quot;rounded&quot;:0};" vertex="1" parent="z0-dMd29TeHwVhwk8-Vb-2">
          <mxGeometry x="45" y="220" width="10" height="40" as="geometry" />
        </mxCell>
        <mxCell id="z0-dMd29TeHwVhwk8-Vb-24" value="过滤配置不展示的商品&lt;div&gt;/过滤配置不展示的分类&lt;/div&gt;&lt;div&gt;/过滤配置不展示的商品名称&lt;/div&gt;" style="html=1;align=left;spacingLeft=2;endArrow=block;rounded=0;edgeStyle=orthogonalEdgeStyle;curved=0;rounded=0;" edge="1" target="z0-dMd29TeHwVhwk8-Vb-23" parent="z0-dMd29TeHwVhwk8-Vb-2">
          <mxGeometry relative="1" as="geometry">
            <mxPoint x="50" y="220" as="sourcePoint" />
            <Array as="points">
              <mxPoint x="80" y="220" />
              <mxPoint x="80" y="250" />
            </Array>
          </mxGeometry>
        </mxCell>
        <mxCell id="z0-dMd29TeHwVhwk8-Vb-18" value="查询商品上市信息" style="html=1;verticalAlign=bottom;endArrow=block;curved=0;rounded=0;entryX=0;entryY=0;entryDx=0;entryDy=5;" edge="1" target="z0-dMd29TeHwVhwk8-Vb-17" parent="z0-dMd29TeHwVhwk8-Vb-2">
          <mxGeometry relative="1" as="geometry">
            <mxPoint x="55" y="327" as="sourcePoint" />
          </mxGeometry>
        </mxCell>
        <mxCell id="z0-dMd29TeHwVhwk8-Vb-19" value="返回" style="html=1;verticalAlign=bottom;endArrow=open;dashed=1;endSize=8;curved=0;rounded=0;exitX=0;exitY=1;exitDx=0;exitDy=-5;" edge="1" source="z0-dMd29TeHwVhwk8-Vb-17" parent="z0-dMd29TeHwVhwk8-Vb-2">
          <mxGeometry relative="1" as="geometry">
            <mxPoint x="49.75925925925935" y="397" as="targetPoint" />
          </mxGeometry>
        </mxCell>
        <mxCell id="z0-dMd29TeHwVhwk8-Vb-25" value="" style="html=1;points=[[0,0,0,0,5],[0,1,0,0,-5],[1,0,0,0,5],[1,1,0,0,-5]];perimeter=orthogonalPerimeter;outlineConnect=0;targetShapes=umlLifeline;portConstraint=eastwest;newEdgeStyle={&quot;curved&quot;:0,&quot;rounded&quot;:0};" vertex="1" parent="z0-dMd29TeHwVhwk8-Vb-2">
          <mxGeometry x="45" y="280" width="10" height="40" as="geometry" />
        </mxCell>
        <mxCell id="z0-dMd29TeHwVhwk8-Vb-26" value="过滤已下线商品&lt;div&gt;/过滤已上线&lt;/div&gt;&lt;div&gt;&lt;span style=&quot;color: light-dark(rgb(0, 0, 0), rgb(255, 255, 255));&quot;&gt;商品为空的分类&lt;/span&gt;&lt;/div&gt;" style="html=1;align=left;spacingLeft=2;endArrow=block;rounded=0;edgeStyle=orthogonalEdgeStyle;curved=0;rounded=0;" edge="1" target="z0-dMd29TeHwVhwk8-Vb-25" parent="z0-dMd29TeHwVhwk8-Vb-2">
          <mxGeometry relative="1" as="geometry">
            <mxPoint x="50" y="280" as="sourcePoint" />
            <Array as="points">
              <mxPoint x="80" y="310" />
            </Array>
          </mxGeometry>
        </mxCell>
        <mxCell id="z0-dMd29TeHwVhwk8-Vb-31" value="" style="html=1;points=[[0,0,0,0,5],[0,1,0,0,-5],[1,0,0,0,5],[1,1,0,0,-5]];perimeter=orthogonalPerimeter;outlineConnect=0;targetShapes=umlLifeline;portConstraint=eastwest;newEdgeStyle={&quot;curved&quot;:0,&quot;rounded&quot;:0};" vertex="1" parent="z0-dMd29TeHwVhwk8-Vb-2">
          <mxGeometry x="45" y="510" width="10" height="40" as="geometry" />
        </mxCell>
        <mxCell id="z0-dMd29TeHwVhwk8-Vb-32" value="适用商品拼接&lt;div&gt;/适用商品商品分类聚合&lt;/div&gt;&lt;div&gt;/不适用商品拼接&lt;/div&gt;" style="html=1;align=left;spacingLeft=2;endArrow=block;rounded=0;edgeStyle=orthogonalEdgeStyle;curved=0;rounded=0;" edge="1" target="z0-dMd29TeHwVhwk8-Vb-31" parent="z0-dMd29TeHwVhwk8-Vb-2">
          <mxGeometry relative="1" as="geometry">
            <mxPoint x="50" y="490" as="sourcePoint" />
            <Array as="points">
              <mxPoint x="80" y="520" />
            </Array>
          </mxGeometry>
        </mxCell>
        <mxCell id="z0-dMd29TeHwVhwk8-Vb-39" value="" style="html=1;points=[[0,0,0,0,5],[0,1,0,0,-5],[1,0,0,0,5],[1,1,0,0,-5]];perimeter=orthogonalPerimeter;outlineConnect=0;targetShapes=umlLifeline;portConstraint=eastwest;newEdgeStyle={&quot;curved&quot;:0,&quot;rounded&quot;:0};" vertex="1" parent="z0-dMd29TeHwVhwk8-Vb-2">
          <mxGeometry x="43" y="100" width="10" height="40" as="geometry" />
        </mxCell>
        <mxCell id="z0-dMd29TeHwVhwk8-Vb-3" value="商品系统" style="shape=umlLifeline;perimeter=lifelinePerimeter;whiteSpace=wrap;html=1;container=1;dropTarget=0;collapsible=0;recursiveResize=0;outlineConnect=0;portConstraint=eastwest;newEdgeStyle={&quot;curved&quot;:0,&quot;rounded&quot;:0};" vertex="1" parent="1">
          <mxGeometry x="364" y="180" width="100" height="630" as="geometry" />
        </mxCell>
        <mxCell id="z0-dMd29TeHwVhwk8-Vb-12" value="" style="html=1;points=[[0,0,0,0,5],[0,1,0,0,-5],[1,0,0,0,5],[1,1,0,0,-5]];perimeter=orthogonalPerimeter;outlineConnect=0;targetShapes=umlLifeline;portConstraint=eastwest;newEdgeStyle={&quot;curved&quot;:0,&quot;rounded&quot;:0};" vertex="1" parent="z0-dMd29TeHwVhwk8-Vb-3">
          <mxGeometry x="45" y="110" width="10" height="30" as="geometry" />
        </mxCell>
        <mxCell id="z0-dMd29TeHwVhwk8-Vb-4" value="供应链系统" style="shape=umlLifeline;perimeter=lifelinePerimeter;whiteSpace=wrap;html=1;container=1;dropTarget=0;collapsible=0;recursiveResize=0;outlineConnect=0;portConstraint=eastwest;newEdgeStyle={&quot;curved&quot;:0,&quot;rounded&quot;:0};" vertex="1" parent="1">
          <mxGeometry x="540" y="180" width="100" height="630" as="geometry" />
        </mxCell>
        <mxCell id="z0-dMd29TeHwVhwk8-Vb-17" value="" style="html=1;points=[[0,0,0,0,5],[0,1,0,0,-5],[1,0,0,0,5],[1,1,0,0,-5]];perimeter=orthogonalPerimeter;outlineConnect=0;targetShapes=umlLifeline;portConstraint=eastwest;newEdgeStyle={&quot;curved&quot;:0,&quot;rounded&quot;:0};" vertex="1" parent="z0-dMd29TeHwVhwk8-Vb-4">
          <mxGeometry x="45" y="320" width="10" height="80" as="geometry" />
        </mxCell>
        <mxCell id="z0-dMd29TeHwVhwk8-Vb-5" value="" style="shape=umlActor;verticalLabelPosition=bottom;verticalAlign=top;html=1;" vertex="1" parent="1">
          <mxGeometry x="75" y="110" width="30" height="60" as="geometry" />
        </mxCell>
        <mxCell id="z0-dMd29TeHwVhwk8-Vb-8" value="生成动态模板" style="html=1;verticalAlign=bottom;endArrow=block;curved=0;rounded=0;entryX=0;entryY=0;entryDx=0;entryDy=5;" edge="1" target="z0-dMd29TeHwVhwk8-Vb-7" parent="1" source="z0-dMd29TeHwVhwk8-Vb-1">
          <mxGeometry relative="1" as="geometry">
            <mxPoint x="165" y="255" as="sourcePoint" />
          </mxGeometry>
        </mxCell>
        <mxCell id="z0-dMd29TeHwVhwk8-Vb-9" value="说明文案" style="html=1;verticalAlign=bottom;endArrow=open;dashed=1;endSize=8;curved=0;rounded=0;exitX=0;exitY=1;exitDx=0;exitDy=-5;" edge="1" source="z0-dMd29TeHwVhwk8-Vb-7" parent="1" target="z0-dMd29TeHwVhwk8-Vb-1">
          <mxGeometry x="-0.0004" relative="1" as="geometry">
            <mxPoint x="165" y="325" as="targetPoint" />
            <mxPoint as="offset" />
          </mxGeometry>
        </mxCell>
        <mxCell id="z0-dMd29TeHwVhwk8-Vb-13" value="查询商品信息/查询商品分类信息" style="html=1;verticalAlign=bottom;endArrow=block;curved=0;rounded=0;entryX=0;entryY=0;entryDx=0;entryDy=5;" edge="1" target="z0-dMd29TeHwVhwk8-Vb-12" parent="1" source="z0-dMd29TeHwVhwk8-Vb-2">
          <mxGeometry relative="1" as="geometry">
            <mxPoint x="339" y="295" as="sourcePoint" />
          </mxGeometry>
        </mxCell>
        <mxCell id="z0-dMd29TeHwVhwk8-Vb-14" value="返回" style="html=1;verticalAlign=bottom;endArrow=open;dashed=1;endSize=8;curved=0;rounded=0;exitX=0;exitY=1;exitDx=0;exitDy=-5;" edge="1" source="z0-dMd29TeHwVhwk8-Vb-12" parent="1" target="z0-dMd29TeHwVhwk8-Vb-2">
          <mxGeometry x="-0.0201" relative="1" as="geometry">
            <mxPoint x="339" y="365" as="targetPoint" />
            <mxPoint as="offset" />
          </mxGeometry>
        </mxCell>
        <mxCell id="z0-dMd29TeHwVhwk8-Vb-27" value="触点内容" style="shape=umlLifeline;perimeter=lifelinePerimeter;whiteSpace=wrap;html=1;container=1;dropTarget=0;collapsible=0;recursiveResize=0;outlineConnect=0;portConstraint=eastwest;newEdgeStyle={&quot;curved&quot;:0,&quot;rounded&quot;:0};" vertex="1" parent="1">
          <mxGeometry x="710" y="180" width="100" height="640" as="geometry" />
        </mxCell>
        <mxCell id="z0-dMd29TeHwVhwk8-Vb-28" value="" style="html=1;points=[[0,0,0,0,5],[0,1,0,0,-5],[1,0,0,0,5],[1,1,0,0,-5]];perimeter=orthogonalPerimeter;outlineConnect=0;targetShapes=umlLifeline;portConstraint=eastwest;newEdgeStyle={&quot;curved&quot;:0,&quot;rounded&quot;:0};" vertex="1" parent="z0-dMd29TeHwVhwk8-Vb-27">
          <mxGeometry x="45" y="150" width="10" height="30" as="geometry" />
        </mxCell>
        <mxCell id="z0-dMd29TeHwVhwk8-Vb-29" value="查询商品池中商品信息" style="html=1;verticalAlign=bottom;endArrow=block;curved=0;rounded=0;entryX=0;entryY=0;entryDx=0;entryDy=5;" edge="1" target="z0-dMd29TeHwVhwk8-Vb-28" parent="1" source="z0-dMd29TeHwVhwk8-Vb-2">
          <mxGeometry relative="1" as="geometry">
            <mxPoint x="685" y="335" as="sourcePoint" />
          </mxGeometry>
        </mxCell>
        <mxCell id="z0-dMd29TeHwVhwk8-Vb-30" value="返回" style="html=1;verticalAlign=bottom;endArrow=open;dashed=1;endSize=8;curved=0;rounded=0;exitX=0;exitY=1;exitDx=0;exitDy=-5;" edge="1" source="z0-dMd29TeHwVhwk8-Vb-28" parent="1" target="z0-dMd29TeHwVhwk8-Vb-2">
          <mxGeometry relative="1" as="geometry">
            <mxPoint x="685" y="405" as="targetPoint" />
          </mxGeometry>
        </mxCell>
        <mxCell id="z0-dMd29TeHwVhwk8-Vb-38" value="MQ监听" style="shape=umlLifeline;perimeter=lifelinePerimeter;whiteSpace=wrap;html=1;container=1;dropTarget=0;collapsible=0;recursiveResize=0;outlineConnect=0;portConstraint=eastwest;newEdgeStyle={&quot;curved&quot;:0,&quot;rounded&quot;:0};" vertex="1" parent="1">
          <mxGeometry x="-100" y="180" width="100" height="630" as="geometry" />
        </mxCell>
        <mxCell id="z0-dMd29TeHwVhwk8-Vb-40" value="" style="html=1;verticalAlign=bottom;startArrow=oval;endArrow=block;startSize=8;curved=0;rounded=0;entryX=0;entryY=0;entryDx=0;entryDy=5;" edge="1" target="z0-dMd29TeHwVhwk8-Vb-39" parent="1" source="z0-dMd29TeHwVhwk8-Vb-38">
          <mxGeometry relative="1" as="geometry">
            <mxPoint x="173" y="285" as="sourcePoint" />
          </mxGeometry>
        </mxCell>
        <mxCell id="z0-dMd29TeHwVhwk8-Vb-41" value="" style="html=1;verticalAlign=bottom;startArrow=oval;endArrow=block;startSize=8;curved=0;rounded=0;entryX=0;entryY=0;entryDx=0;entryDy=5;" edge="1" parent="1">
          <mxGeometry relative="1" as="geometry">
            <mxPoint x="-50" y="350" as="sourcePoint" />
            <mxPoint x="243" y="350" as="targetPoint" />
          </mxGeometry>
        </mxCell>
        <mxCell id="z0-dMd29TeHwVhwk8-Vb-42" value="" style="html=1;verticalAlign=bottom;startArrow=oval;endArrow=block;startSize=8;curved=0;rounded=0;entryX=0;entryY=0;entryDx=0;entryDy=5;" edge="1" parent="1">
          <mxGeometry relative="1" as="geometry">
            <mxPoint x="-50" y="440" as="sourcePoint" />
            <mxPoint x="243" y="440" as="targetPoint" />
          </mxGeometry>
        </mxCell>
        <mxCell id="z0-dMd29TeHwVhwk8-Vb-43" value="监听商品池变更" style="shape=umlActor;verticalLabelPosition=bottom;verticalAlign=top;html=1;" vertex="1" parent="1">
          <mxGeometry x="-110" y="230" width="30" height="60" as="geometry" />
        </mxCell>
        <mxCell id="z0-dMd29TeHwVhwk8-Vb-44" value="监听商品上下线变更" style="shape=umlActor;verticalLabelPosition=bottom;verticalAlign=top;html=1;" vertex="1" parent="1">
          <mxGeometry x="-130" y="340" width="30" height="60" as="geometry" />
        </mxCell>
        <mxCell id="z0-dMd29TeHwVhwk8-Vb-45" value="监听商品上下市变更" style="shape=umlActor;verticalLabelPosition=bottom;verticalAlign=top;html=1;" vertex="1" parent="1">
          <mxGeometry x="-130" y="440" width="30" height="60" as="geometry" />
        </mxCell>
        <mxCell id="z0-dMd29TeHwVhwk8-Vb-51" value="" style="ellipse;html=1;shape=startState;fillColor=#000000;strokeColor=#ff0000;" vertex="1" parent="1">
          <mxGeometry x="145" y="860" width="30" height="30" as="geometry" />
        </mxCell>
        <mxCell id="z0-dMd29TeHwVhwk8-Vb-52" value="" style="edgeStyle=orthogonalEdgeStyle;html=1;verticalAlign=bottom;endArrow=open;endSize=8;strokeColor=#ff0000;rounded=0;" edge="1" source="z0-dMd29TeHwVhwk8-Vb-51" parent="1">
          <mxGeometry relative="1" as="geometry">
            <mxPoint x="160" y="920" as="targetPoint" />
          </mxGeometry>
        </mxCell>
        <mxCell id="z0-dMd29TeHwVhwk8-Vb-55" value="" style="edgeStyle=orthogonalEdgeStyle;rounded=0;orthogonalLoop=1;jettySize=auto;html=1;" edge="1" parent="1" source="z0-dMd29TeHwVhwk8-Vb-53" target="z0-dMd29TeHwVhwk8-Vb-54">
          <mxGeometry relative="1" as="geometry" />
        </mxCell>
        <mxCell id="z0-dMd29TeHwVhwk8-Vb-53" value="请求生成动态说明" style="rounded=1;whiteSpace=wrap;html=1;" vertex="1" parent="1">
          <mxGeometry x="100" y="920" width="120" height="60" as="geometry" />
        </mxCell>
        <mxCell id="z0-dMd29TeHwVhwk8-Vb-58" value="" style="edgeStyle=orthogonalEdgeStyle;rounded=0;orthogonalLoop=1;jettySize=auto;html=1;exitX=0.5;exitY=1;exitDx=0;exitDy=0;" edge="1" parent="1" source="z0-dMd29TeHwVhwk8-Vb-54" target="z0-dMd29TeHwVhwk8-Vb-56">
          <mxGeometry relative="1" as="geometry" />
        </mxCell>
        <mxCell id="z0-dMd29TeHwVhwk8-Vb-61" value="" style="edgeStyle=orthogonalEdgeStyle;rounded=0;orthogonalLoop=1;jettySize=auto;html=1;exitX=0.5;exitY=1;exitDx=0;exitDy=0;" edge="1" parent="1" source="z0-dMd29TeHwVhwk8-Vb-54" target="z0-dMd29TeHwVhwk8-Vb-59">
          <mxGeometry relative="1" as="geometry" />
        </mxCell>
        <mxCell id="z0-dMd29TeHwVhwk8-Vb-64" value="" style="edgeStyle=orthogonalEdgeStyle;rounded=0;orthogonalLoop=1;jettySize=auto;html=1;exitX=0.5;exitY=1;exitDx=0;exitDy=0;" edge="1" parent="1" source="z0-dMd29TeHwVhwk8-Vb-54" target="z0-dMd29TeHwVhwk8-Vb-62">
          <mxGeometry relative="1" as="geometry" />
        </mxCell>
        <mxCell id="z0-dMd29TeHwVhwk8-Vb-65" value="" style="edgeStyle=orthogonalEdgeStyle;rounded=0;orthogonalLoop=1;jettySize=auto;html=1;" edge="1" parent="1" source="z0-dMd29TeHwVhwk8-Vb-54" target="z0-dMd29TeHwVhwk8-Vb-59">
          <mxGeometry relative="1" as="geometry" />
        </mxCell>
        <mxCell id="z0-dMd29TeHwVhwk8-Vb-67" style="edgeStyle=orthogonalEdgeStyle;rounded=0;orthogonalLoop=1;jettySize=auto;html=1;exitX=0.5;exitY=1;exitDx=0;exitDy=0;entryX=0.5;entryY=0;entryDx=0;entryDy=0;" edge="1" parent="1" source="z0-dMd29TeHwVhwk8-Vb-54" target="z0-dMd29TeHwVhwk8-Vb-66">
          <mxGeometry relative="1" as="geometry" />
        </mxCell>
        <mxCell id="z0-dMd29TeHwVhwk8-Vb-54" value="判断动态模板类型" style="rhombus;whiteSpace=wrap;html=1;rounded=1;" vertex="1" parent="1">
          <mxGeometry x="120" y="1010" width="80" height="80" as="geometry" />
        </mxCell>
        <mxCell id="z0-dMd29TeHwVhwk8-Vb-69" style="edgeStyle=orthogonalEdgeStyle;rounded=0;orthogonalLoop=1;jettySize=auto;html=1;exitX=0.5;exitY=1;exitDx=0;exitDy=0;entryX=0.5;entryY=0;entryDx=0;entryDy=0;" edge="1" parent="1" source="z0-dMd29TeHwVhwk8-Vb-56" target="z0-dMd29TeHwVhwk8-Vb-68">
          <mxGeometry relative="1" as="geometry" />
        </mxCell>
        <mxCell id="z0-dMd29TeHwVhwk8-Vb-56" value="动态模板-普通" style="whiteSpace=wrap;html=1;rounded=1;" vertex="1" parent="1">
          <mxGeometry x="-110" y="1169" width="120" height="60" as="geometry" />
        </mxCell>
        <mxCell id="z0-dMd29TeHwVhwk8-Vb-70" style="edgeStyle=orthogonalEdgeStyle;rounded=0;orthogonalLoop=1;jettySize=auto;html=1;exitX=0.5;exitY=1;exitDx=0;exitDy=0;" edge="1" parent="1" source="z0-dMd29TeHwVhwk8-Vb-59">
          <mxGeometry relative="1" as="geometry">
            <mxPoint x="160" y="1300" as="targetPoint" />
          </mxGeometry>
        </mxCell>
        <mxCell id="z0-dMd29TeHwVhwk8-Vb-59" value="&lt;br&gt;&lt;span style=&quot;color: rgb(0, 0, 0); font-family: Helvetica; font-size: 12px; font-style: normal; font-variant-ligatures: normal; font-variant-caps: normal; font-weight: 400; letter-spacing: normal; orphans: 2; text-align: center; text-indent: 0px; text-transform: none; widows: 2; word-spacing: 0px; -webkit-text-stroke-width: 0px; white-space: normal; background-color: rgb(236, 236, 236); text-decoration-thickness: initial; text-decoration-style: initial; text-decoration-color: initial; float: none; display: inline !important;&quot;&gt;动态模板-天天9.9&lt;/span&gt;&lt;div&gt;&lt;br/&gt;&lt;/div&gt;" style="whiteSpace=wrap;html=1;rounded=1;" vertex="1" parent="1">
          <mxGeometry x="41" y="1169" width="120" height="60" as="geometry" />
        </mxCell>
        <mxCell id="z0-dMd29TeHwVhwk8-Vb-72" style="edgeStyle=orthogonalEdgeStyle;rounded=0;orthogonalLoop=1;jettySize=auto;html=1;exitX=0.5;exitY=1;exitDx=0;exitDy=0;entryX=0.5;entryY=0;entryDx=0;entryDy=0;" edge="1" parent="1" source="z0-dMd29TeHwVhwk8-Vb-62" target="z0-dMd29TeHwVhwk8-Vb-68">
          <mxGeometry relative="1" as="geometry" />
        </mxCell>
        <mxCell id="z0-dMd29TeHwVhwk8-Vb-62" value="动态模板-抵价券-折扣券" style="whiteSpace=wrap;html=1;rounded=1;" vertex="1" parent="1">
          <mxGeometry x="320" y="1169" width="120" height="60" as="geometry" />
        </mxCell>
        <mxCell id="z0-dMd29TeHwVhwk8-Vb-71" style="edgeStyle=orthogonalEdgeStyle;rounded=0;orthogonalLoop=1;jettySize=auto;html=1;exitX=0.5;exitY=1;exitDx=0;exitDy=0;" edge="1" parent="1" source="z0-dMd29TeHwVhwk8-Vb-66">
          <mxGeometry relative="1" as="geometry">
            <mxPoint x="160" y="1300" as="targetPoint" />
          </mxGeometry>
        </mxCell>
        <mxCell id="z0-dMd29TeHwVhwk8-Vb-66" value="动态模板-抵价券-兑换券" style="whiteSpace=wrap;html=1;rounded=1;" vertex="1" parent="1">
          <mxGeometry x="176" y="1169" width="120" height="60" as="geometry" />
        </mxCell>
        <mxCell id="z0-dMd29TeHwVhwk8-Vb-74" style="edgeStyle=orthogonalEdgeStyle;rounded=0;orthogonalLoop=1;jettySize=auto;html=1;exitX=0.5;exitY=1;exitDx=0;exitDy=0;entryX=0.5;entryY=0;entryDx=0;entryDy=0;" edge="1" parent="1" source="z0-dMd29TeHwVhwk8-Vb-68" target="z0-dMd29TeHwVhwk8-Vb-73">
          <mxGeometry relative="1" as="geometry" />
        </mxCell>
        <mxCell id="z0-dMd29TeHwVhwk8-Vb-68" value="拼接生成动态说明" style="rounded=1;whiteSpace=wrap;html=1;" vertex="1" parent="1">
          <mxGeometry x="100" y="1300" width="120" height="60" as="geometry" />
        </mxCell>
        <mxCell id="z0-dMd29TeHwVhwk8-Vb-73" value="" style="ellipse;html=1;shape=endState;fillColor=#000000;strokeColor=#ff0000;" vertex="1" parent="1">
          <mxGeometry x="145" y="1410" width="30" height="30" as="geometry" />
        </mxCell>
      </root>
    </mxGraphModel>
  </diagram>
</mxfile>
